# xmcd
#
# Track frame offsets:
# 150
# 17791
# 35474
# 50306
# 62371
# 77833
# 93982
# 107231
# 123665
# 137033
# 152283
# 166619
# 185094
# 202004
# 218729
# 232352
# 249432
# 268982
#
# Disc length: 3825 seconds
#
#
# Revision: 0
# Processed by: cddbd v1.5.1PL2 Copyright (c) Steve Scherf et al.
# Submitted via: FreeRIP 2.945 
#
DISCID=fb0eef12
DTITLE=Wander and Agnaldo - Ao Vivo
DYEAR=2006
DGENRE=Sertanejo
TTITLE0=Tarde Demais
TTITLE1=Pegue Tudo Aquilo Que Eh Seu
TTITLE2=Doce Desejo
TTITLE3=Mulher Cerveja e Viola
TTITLE4=Magia
TTITLE5=Solidao Demais
TTITLE6=Mercedita
TTITLE7=Choram as Rosas
TTITLE8=Abre a Janela
TTITLE9=Querendo te Encontrar
TTITLE10=Memorias
TTITLE11=Castigo
TTITLE12=Pra Sempre Te Amar
TTITLE13=Recado Meu
TTITLE14=Prova de Fogo
TTITLE15=Fogo no Rabo
TTITLE16=So Falta Voce
TTITLE17=O que Tiver que Vir Vira
EXTD=
EXTT0=
EXTT1=
EXTT2=
EXTT3=
EXTT4=
EXTT5=
EXTT6=
EXTT7=
EXTT8=
EXTT9=
EXTT10=
EXTT11=
EXTT12=
EXTT13=
EXTT14=
EXTT15=
EXTT16=
EXTT17=
PLAYORDER=
